<svg width="3040" height="612" viewBox="0 0 3040 612" fill="none" xmlns="http://www.w3.org/2000/svg">
<path d="M754.287 452.5C762.63 428.844 762.63 387.226 754.287 368.037C795.905 401.312 882.283 422.415 955.262 422.415C1016.71 422.415 1048.07 407.103 1048.07 378.932C1048.07 292.505 746.631 396.208 746.631 238.765C746.631 136.977 874.627 128.683 947.557 128.683C1020.49 128.683 1069.81 140.167 1130.62 156.804C1122.32 179.871 1122.96 204.803 1132.53 241.955C1073.53 211.557 1008.18 195.547 941.815 195.233C877.179 195.233 847.094 208.042 847.094 238.765C847.094 331.572 1150.45 218.888 1150.45 380.208C1150.45 460.205 1077.52 493.088 958.452 493.088C886.013 492.842 807.978 480.033 754.287 452.5Z" fill="white"/>
<path d="M1202.86 45.4464C1202.86 14.7235 1225.24 0 1268.77 0C1316.13 0 1340.48 14.7235 1340.48 45.4464C1340.48 76.1693 1315.94 89.6168 1268.77 89.6168C1225.44 89.6168 1202.86 76.1693 1202.86 45.4464ZM1324.48 139.529C1316.77 254.177 1316.77 369.213 1324.48 483.862H1214.39C1222.69 369.234 1222.69 254.157 1214.39 139.529C1252.77 145.958 1287.32 147.234 1324.48 139.529Z" fill="white"/>
<path d="M1409.57 149.149C1457.57 146.597 1499.83 138.891 1526.08 126.769C1516.11 171.964 1510.12 217.946 1508.17 264.188H1514.99C1538.01 187.381 1585.37 127.898 1666.05 127.898C1746.74 127.898 1779.33 186.105 1783.16 252.704H1789.83C1806.47 188.657 1861.48 127.898 1938.93 127.898C2020.84 127.898 2059.27 194.448 2061.18 275.132C2062.46 322.493 2057.99 415.299 2072.08 482.488H1960.03C1964.22 432.691 1965.85 382.714 1964.94 332.75C1964.94 251.428 1939.96 208.582 1882.39 208.582C1823.5 208.582 1793.41 254.667 1793.41 344.234C1793.41 395.472 1795.33 449.213 1801.07 482.488H1687.99C1692.46 432.575 1692.46 383.301 1692.46 332.75C1692.46 253.391 1668.8 208.582 1613.1 208.582C1551.65 208.582 1520.93 257.661 1520.93 343.597C1520.93 390.319 1520.93 436.845 1526.08 483.764L1409.57 482.635C1422.39 371.842 1422.39 259.941 1409.57 149.149Z" fill="white"/>
<path d="M2582.15 302.125C2582.15 413.483 2503.63 494.119 2382.45 494.119C2331.9 494.119 2279.39 474.929 2249.94 435.225C2250.03 494.253 2253.31 553.232 2259.76 611.906C2219.67 606.362 2179.03 605.933 2138.83 610.63C2152.87 519.1 2152.87 275.23 2138.83 149.296C2181.67 146.744 2230.31 139.038 2257.84 126.916C2247.67 167.45 2240.83 208.748 2237.38 250.397H2245.67C2271.93 186.595 2330.19 128.192 2417.84 128.192C2513.05 128.045 2582.15 198.423 2582.15 302.125ZM2478.45 307.867C2478.45 242.593 2438.8 198.423 2368.37 198.423C2270.21 198.423 2249.35 278.42 2249.35 348.209V400.674C2275.6 425.481 2310.51 439.042 2346.63 438.464C2419.61 438.464 2478.45 393.018 2478.45 307.867Z" fill="white"/>
<path d="M3039.8 483.861H2921.38C2931.62 444.69 2938.05 404.619 2940.57 364.209H2932.27C2907.73 442.734 2848.4 490.928 2765.41 490.928C2669.41 490.928 2639.96 423.053 2639.96 343.694C2639.96 277.144 2642.52 203.527 2630.98 146.596C2666.35 147.695 2701.64 142.714 2735.32 131.873V295.695C2735.32 364.847 2761.58 409.655 2821.11 409.655C2899.64 409.655 2928.59 355.669 2928.59 283.573V146.596C2966.28 147.662 3003.89 142.692 3040 131.873C3025.08 232.336 3025.08 352.037 3039.8 483.861Z" fill="white"/>
<path d="M543.884 110.572H504.622L399.104 235.378L354.933 110.572H189.589L0 334.32L48.342 483.91H367.35L491.616 333.829L565.479 246.519L543.884 110.572ZM315.622 333.829H176.141L242.741 244.212H391.546L315.622 333.829Z" fill="white"/>
</svg>
