<?xml version="1.0" encoding="UTF-8"?>
<svg version="1.1" xmlns="http://www.w3.org/2000/svg" width="1200" height="672">
<path d="M0 0 C422.4 0 844.8 0 1280 0 C1280 221.76 1280 443.52 1280 672 C857.6 672 435.2 672 0 672 C0 450.24 0 228.48 0 0 Z " fill="#ACD6ED" transform="translate(0,0)"/>
<path d="M0 0 C1.17159668 -0.00146027 2.34319336 -0.00292053 3.55029297 -0.00442505 C7.4045851 0.00251598 11.25397981 0.08016354 15.10742188 0.15869141 C17.78650088 0.17735283 20.4653123 0.19207422 23.14440918 0.2015686 C29.46318806 0.23256589 35.78022257 0.31450491 42.09823561 0.4150635 C49.29513472 0.5271069 56.49212023 0.58188613 63.68967533 0.63201785 C78.48606356 0.73635095 93.28108723 0.91207282 108.07617188 1.13525391 C110.44774317 6.34580126 112.67624486 11.54473076 114.578125 16.94921875 C114.79661606 17.56684586 115.01510712 18.18447296 115.24021912 18.82081604 C115.949382 20.82808432 116.65342477 22.83710623 117.35742188 24.84619141 C117.85745339 26.26441045 118.35782613 27.68250923 118.85852051 29.10049438 C120.1687405 32.81374163 121.47468706 36.52847699 122.77960205 40.24359131 C124.35792445 44.73475359 125.94103188 49.22423076 127.52370453 53.71386147 C128.75678496 57.21195346 129.98911023 60.71030402 131.21887207 64.20956421 C131.44549278 64.85369577 131.67211349 65.49782734 131.9056015 66.16147804 C132.55556742 68.00947028 133.20443571 69.85784846 133.85327148 71.70623779 C135.3066057 75.781391 136.83056665 79.82799169 138.38684082 83.86489868 C139.07617188 86.13525391 139.07617188 86.13525391 139.07617188 90.13525391 C139.73617188 90.13525391 140.39617187 90.13525391 141.07617188 90.13525391 C141.32109375 89.57064453 141.56601562 89.00603516 141.81835938 88.42431641 C143.30306688 85.72233319 145.09583523 83.76230391 147.20117188 81.51025391 C150.20197996 78.23794413 153.08552974 74.94061484 155.82617188 71.44775391 C159.2294614 67.13105666 162.77861026 62.96602456 166.38867188 58.82275391 C173.88709705 50.21581877 181.31133179 41.55520984 188.51367188 32.69775391 C190.96133624 29.6906234 193.43064992 26.70640489 195.95117188 23.76025391 C196.45060303 23.17574463 196.95003418 22.59123535 197.46459961 21.98901367 C198.49966769 20.79211934 199.54620047 19.60504704 200.60375977 18.42797852 C203.12068405 15.59795527 205.27564838 12.9543134 207.00976562 9.57666016 C209.2491963 5.75115383 210.9708027 2.90480959 215.07617188 1.13525391 C224.96050232 -0.35341919 235.15145628 0.40700573 245.07617188 1.13525391 C245.33140625 2.97410156 245.33140625 2.97410156 245.59179688 4.85009766 C247.57100871 18.97580068 249.79111182 33.05619723 252.07617188 47.13525391 C254.05603557 59.33388873 256.02939436 71.53305819 257.82617188 83.76025391 C257.95386963 84.6068457 258.08156738 85.4534375 258.21313477 86.32568359 C260.00227744 98.7428115 260.00227744 98.7428115 257.42382812 102.61962891 C256.29267578 103.74111328 256.29267578 103.74111328 255.13867188 104.88525391 C251.8499351 108.28668883 248.72673634 111.69499046 245.76367188 115.38525391 C242.30775154 119.65256423 238.78239289 123.84837166 235.20117188 128.01025391 C229.91621527 134.15229843 224.67084461 140.32617669 219.44384766 146.51757812 C218.0515777 148.1643437 216.65611715 149.80835458 215.25976562 151.45166016 C210.24280318 157.35944444 205.28458347 163.30666935 200.39257812 169.31884766 C197.79829711 172.47310838 195.16000446 175.58719218 192.51367188 178.69775391 C188.71469422 183.16744493 185.00395072 187.69207462 181.35742188 192.28759766 C173.69558833 201.85177001 165.84768472 211.2681952 157.90893555 220.60327148 C154.34599978 224.79833039 150.86298842 229.05430786 147.38867188 233.32275391 C144.81470491 236.45325427 142.20032462 239.54684194 139.57617188 242.63525391 C130.86443878 251.89397431 130.86443878 251.89397431 124.09709835 262.34426785 C122.41778859 265.4795946 121.01473773 267.08359561 118.07617188 269.13525391 C111.00504102 270.95201337 103.30963316 270.26931923 96.07641602 270.15698242 C93.7995514 270.15444303 91.52267942 270.15587018 89.24581909 270.16096497 C83.0701643 270.16354705 76.89608306 270.11063911 70.72079396 270.04779935 C64.26531407 269.99153324 57.80979799 269.98625044 51.35411072 269.97557068 C40.52051315 269.95077669 29.6875608 269.89456414 18.85424805 269.81420898 C7.69802731 269.73154494 -3.45803662 269.66786548 -14.61450195 269.62963867 C-15.30265887 269.62727416 -15.99081578 269.62490965 -16.69982594 269.62247349 C-20.15225097 269.61072779 -23.60467711 269.59935451 -27.05710399 269.58816636 C-55.67973501 269.49492859 -84.30175899 269.33579499 -112.92382812 269.13525391 C-113.26410538 268.11376755 -113.60438263 267.09228119 -113.95497131 266.0398407 C-115.23878872 262.18609582 -116.52286919 258.33243864 -117.80702209 254.47880554 C-118.35878868 252.82288398 -118.91048748 251.16693982 -119.46211243 249.51097107 C-122.43764783 240.57861961 -125.41756294 231.64789387 -128.42591858 222.72653198 C-131.12728292 214.7017133 -133.71810116 206.66644374 -136.05566406 198.52807617 C-137.80727648 192.44838601 -139.69594264 186.41518945 -141.61132812 180.38525391 C-141.90918213 179.44343262 -142.20703613 178.50161133 -142.51391602 177.53125 C-142.93918579 176.19827881 -142.93918579 176.19827881 -143.37304688 174.83837891 C-143.62401123 174.05108398 -143.87497559 173.26378906 -144.13354492 172.45263672 C-144.70299055 170.7828258 -145.33207078 169.13293372 -145.99755859 167.49902344 C-147.07502927 164.74940005 -147.3622785 163.06133326 -146.92382812 160.13525391 C-145.27148438 157.84619141 -145.27148438 157.84619141 -142.98632812 155.51025391 C-139.64379589 151.98464088 -136.46640334 148.42371616 -133.42382812 144.63525391 C-130.497499 141.01678433 -127.49785276 137.51055707 -124.36132812 134.07275391 C-121.51236847 130.94429218 -118.79080367 127.77246498 -116.17382812 124.44775391 C-112.2383767 119.45606801 -108.09249056 114.66976084 -103.91748047 109.87915039 C-100.3474226 105.78135826 -96.8043027 101.66343797 -93.29882812 97.51025391 C-92.8523291 96.98125488 -92.40583008 96.45225586 -91.94580078 95.90722656 C-91.05100137 94.84625475 -90.15646846 93.78505812 -89.26220703 92.72363281 C-80.17434562 81.93822122 -71.02057182 71.21052106 -61.81445312 60.52587891 C-57.29372996 55.27372573 -52.79440753 50.0138228 -48.42382812 44.63525391 C-42.54514502 37.40076641 -36.43690063 30.36348987 -30.34619141 23.30761719 C-29.29626744 22.09100762 -28.24703224 20.87380332 -27.19848633 19.65600586 C-26.22853384 18.52949419 -25.25717225 17.40419311 -24.28393555 16.28051758 C-23.82994385 15.75304932 -23.37595215 15.22558105 -22.90820312 14.68212891 C-22.45838326 14.1701615 -22.00856339 13.65819408 -21.54511261 13.13071251 C-19.8447988 11.10961488 -19.8447988 11.10961488 -18.30158234 8.64129066 C-13.0147699 0.91973396 -9.13737768 -0.30047196 0 0 Z " fill="#000000" transform="translate(583.923828125,200.86474609375)"/>
<path d="M0 0 C2.38462294 0.02427133 4.76931106 0.04276468 7.15402222 0.05574036 C13.4061844 0.10518678 19.65436913 0.23270514 25.90496826 0.37689209 C32.29286899 0.51030146 38.6814178 0.56934102 45.0703125 0.63476562 C57.58767743 0.77384874 70.10210072 0.99547721 82.6171875 1.26953125 C81.67642385 2.53388261 80.73425212 3.79718632 79.79150391 5.06005859 C79.26698639 5.76367523 78.74246887 6.46729187 78.20205688 7.19223022 C75.911885 10.19397689 73.46992386 13.04729684 70.9921875 15.89453125 C69.94138193 17.11195818 68.89060142 18.32940673 67.83984375 19.546875 C67.04151123 20.46895752 67.04151123 20.46895752 66.22705078 21.40966797 C63.62145412 24.41989474 61.02378612 27.43689302 58.4296875 30.45703125 C57.92671143 31.04250732 57.42373535 31.6279834 56.90551758 32.23120117 C53.9477357 35.68477101 51.04330909 39.17453454 48.1796875 42.70703125 C44.43099698 47.32398464 40.57456398 51.83851862 36.6796875 56.33203125 C36.1112915 56.9880835 35.54289551 57.64413574 34.95727539 58.32006836 C28.9525867 65.22387421 28.9525867 65.22387421 26.80935478 65.51562691 C25.70596858 65.51286153 25.70596858 65.51286153 24.58029175 65.51004028 C23.73612701 65.51278961 22.89196228 65.51553894 22.0222168 65.51837158 C21.0943335 65.51118103 20.1664502 65.50399048 19.21044922 65.49658203 C18.23480011 65.49687408 17.259151 65.49716614 16.25393677 65.49746704 C13.01816009 65.49606993 9.78261162 65.48049076 6.546875 65.46484375 C4.30771002 65.46111498 2.06854341 65.45826737 -0.17062378 65.45626831 C-6.0725757 65.44862117 -11.97442964 65.4289634 -17.87634277 65.40686035 C-23.89541295 65.38642517 -29.91449891 65.37727158 -35.93359375 65.3671875 C-47.75004312 65.34571854 -59.56641967 65.31156958 -71.3828125 65.26953125 C-68.82608738 60.72765497 -66.25496146 56.62002653 -63.0078125 52.51953125 C-58.6752091 46.98944555 -54.47634478 41.37089572 -50.3203125 35.70703125 C-49.11598383 34.06763603 -47.91155875 32.42831164 -46.70703125 30.7890625 C-46.13645996 30.01256348 -45.56588867 29.23606445 -44.97802734 28.43603516 C-42.22678847 24.69950413 -39.47688627 20.96510177 -36.60372925 17.32096863 C-34.30321299 14.31848994 -34.30321299 14.31848994 -32.63748169 10.9210968 C-24.97776501 -2.2153577 -13.89826273 -0.41565309 0 0 Z " fill="#CAF9D9" transform="translate(635.3828125,296.73046875)"/>
<path d="M0 0 C0.66 0.33 1.32 0.66 2 1 C-2.66572575 8.84690239 -2.66572575 8.84690239 -4.953125 9.89453125 C-7.66426891 11.35875592 -8.33757721 12.97481741 -9.75 15.6875 C-12.35959121 20.29933511 -15.22884253 23.34894951 -19.36328125 26.625 C-21.12601821 27.92106005 -21.12601821 27.92106005 -22 30 C-22.99 29.67 -23.98 29.34 -25 29 C-24.45472656 28.40574219 -23.90945313 27.81148438 -23.34765625 27.19921875 C-18.44096568 21.80605288 -13.73912659 16.29588048 -9.15234375 10.62890625 C-6.18823137 7.00849313 -3.11260732 3.4929259 0 0 Z " fill="#BCE3D5" transform="translate(727,439)"/>
<path d="M0 0 C0.66 0.33 1.32 0.66 2 1 C0.88910032 4.33269903 0.21009041 4.79659259 -2.5 6.8125 C-5.31249809 9.1073604 -5.92355365 9.72479313 -6.9375 13.375 C-6.958125 14.24125 -6.97875 15.1075 -7 16 C-7.66 15.67 -8.32 15.34 -9 15 C-12.42578949 18.17539556 -12.42578949 18.17539556 -15 22 C-15.99 21.67 -16.98 21.34 -18 21 C-12.20571915 13.79481861 -6.25204593 6.81369545 0 0 Z " fill="#B7DCD1" transform="translate(823,324)"/>
<path d="M0 0 C0.99 0 1.98 0 3 0 C1.43988817 3.4777493 -0.63172326 6.27224027 -3 9.25 C-3.70125 10.14203125 -4.4025 11.0340625 -5.125 11.953125 C-6.053125 12.96632813 -6.053125 12.96632813 -7 14 C-7.66 14 -8.32 14 -9 14 C-9.66 10.7 -10.32 7.4 -11 4 C-10.01 4 -9.02 4 -8 4 C-8 4.66 -8 5.32 -8 6 C-6.68 6 -5.36 6 -4 6 C-3.67 5.01 -3.34 4.02 -3 3 C-2.01 2.34 -1.02 1.68 0 1 C0 0.67 0 0.34 0 0 Z " fill="#C5E9D9" transform="translate(732,277)"/>
<path d="M0 0 C0.33 0.66 0.66 1.32 1 2 C0.67 2.66 0.34 3.32 0 4 C-0.99 4 -1.98 4 -3 4 C-3 5.65 -3 7.3 -3 9 C-3.99 9.33 -4.98 9.66 -6 10 C-7.2364282 11.46419129 -8.4696183 12.93185136 -9.66015625 14.43359375 C-11.52783721 16.61709248 -13.7008219 18.29203912 -16 20 C-16 16.59076972 -15.64665201 16.21341542 -13.515625 13.75 C-12.99226562 13.1415625 -12.46890625 12.533125 -11.9296875 11.90625 C-11.37539063 11.2771875 -10.82109375 10.648125 -10.25 10 C-9.71117187 9.3709375 -9.17234375 8.741875 -8.6171875 8.09375 C-5.9527831 5.02643567 -3.41796626 2.25652142 0 0 Z " fill="#BFE0D5" transform="translate(755,407)"/>
<path d="M0 0 C0.66 0.33 1.32 0.66 2 1 C1.21625 1.9075 0.4325 2.815 -0.375 3.75 C-2.30052496 6.05190236 -3.82205741 8.21577207 -5 11 C-5.66 11 -6.32 11 -7 11 C-7.12375 11.639375 -7.2475 12.27875 -7.375 12.9375 C-7.58125 13.618125 -7.7875 14.29875 -8 15 C-8.99 15.495 -8.99 15.495 -10 16 C-10.66 16.99 -11.32 17.98 -12 19 C-12.66 18.67 -13.32 18.34 -14 18 C-12.39435789 14.32872101 -10.110728 11.51294759 -7.5625 8.4375 C-6.78003906 7.48746094 -5.99757813 6.53742188 -5.19140625 5.55859375 C-3.52174835 3.60917143 -1.85359593 1.77015431 0 0 Z " fill="#BFE4DC" transform="translate(839,305)"/>
<path d="M0 0 C0.99 0.33 1.98 0.66 3 1 C2.50628906 1.53109375 2.01257813 2.0621875 1.50390625 2.609375 C0.86324219 3.31578125 0.22257813 4.0221875 -0.4375 4.75 C-1.07558594 5.44609375 -1.71367188 6.1421875 -2.37109375 6.859375 C-4.01270494 9.01669618 -4.43438918 10.40715041 -5 13 C-7.27600998 14.44147299 -9.43336266 15.14445422 -12 16 C-10.57139081 11.50891248 -8.06922708 8.53830684 -4.875 5.1875 C-4.40707031 4.68541016 -3.93914063 4.18332031 -3.45703125 3.66601562 C-2.31098175 2.43810545 -1.15634689 1.21821785 0 0 Z " fill="#C2E6DA" transform="translate(780,375)"/>
<path d="M0 0 C0.33 0.99 0.66 1.98 1 3 C-0.28062485 4.7074998 -1.62631655 6.36643049 -3 8 C-4.41657383 10.29418186 -5.70165595 12.63515906 -7 15 C-8.32 15 -9.64 15 -11 15 C-9.58319756 10.67953102 -7.46236215 7.99538801 -4.375 4.6875 C-3.55773437 3.80449219 -2.74046875 2.92148437 -1.8984375 2.01171875 C-0.95871094 1.01591797 -0.95871094 1.01591797 0 0 Z " fill="#BBDFD3" transform="translate(799,352)"/>
<path d="M0 0 C0.66 0.99 1.32 1.98 2 3 C1.278125 3.70125 0.55625 4.4025 -0.1875 5.125 C-2.99823813 7.92770745 -5.49516226 10.92262792 -8 14 C-8.99 13.67 -9.98 13.34 -11 13 C-10.06027344 11.96939453 -10.06027344 11.96939453 -9.1015625 10.91796875 C-8.28429687 10.01691406 -7.46703125 9.11585938 -6.625 8.1875 C-5.81289063 7.29417969 -5.00078125 6.40085937 -4.1640625 5.48046875 C-1.90927093 3.00367326 -1.90927093 3.00367326 0 0 Z " fill="#B4D8CC" transform="translate(713,455)"/>
<path d="M0 0 C0.99 0 1.98 0 3 0 C3.66 4.29 4.32 8.58 5 13 C5.99 13.33 6.98 13.66 8 14 C7.34 15.32 6.68 16.64 6 18 C5.17934931 16.12855305 4.3688416 14.25265664 3.5625 12.375 C2.88380859 10.80878906 2.88380859 10.80878906 2.19140625 9.2109375 C1.04198295 6.11314749 0.42688777 3.26789946 0 0 Z " fill="#C5EBD8" transform="translate(712,256)"/>
<path d="M0 0 C0.66 0 1.32 0 2 0 C2.53394179 1.4117783 3.05165104 2.82970244 3.5625 4.25 C3.85253906 5.03890625 4.14257812 5.8278125 4.44140625 6.640625 C5.04522837 9.19103452 4.8473932 10.55322229 4 13 C3.71125 12.360625 3.4225 11.72125 3.125 11.0625 C2.17176549 8.84793921 2.17176549 8.84793921 0 8 C0 5.36 0 2.72 0 0 Z " fill="#B5D3CC" transform="translate(442,384)"/>
<path d="M0 0 C0.99 0 1.98 0 3 0 C2.9175 0.639375 2.835 1.27875 2.75 1.9375 C3.06362505 5.77940684 4.45895403 8.56971405 6.125 12.01171875 C7 14 7 14 7 16 C6.01 15.67 5.02 15.34 4 15 C2.83203125 12.3828125 2.83203125 12.3828125 1.8125 9.125 C1.46832031 8.05507812 1.12414062 6.98515625 0.76953125 5.8828125 C0 3 0 3 0 0 Z " fill="#BFE7D9" transform="translate(693,202)"/>
<path d="M0 0 C0.33 0.99 0.66 1.98 1 3 C0.34 3.66 -0.32 4.32 -1 5 C-1.309375 5.804375 -1.61875 6.60875 -1.9375 7.4375 C-2.9878314 9.97065221 -3.95221448 11.23145796 -6 13 C-6.99 12.67 -7.98 12.34 -9 12 C-6.03 8.04 -3.06 4.08 0 0 Z " fill="#C1DECB" transform="translate(600,312)"/>
<path d="M0 0 C0.99 0 1.98 0 3 0 C1.55575365 3.23861303 -0.25772247 5.61969163 -2.625 8.25 C-3.25664063 8.95640625 -3.88828125 9.6628125 -4.5390625 10.390625 C-5.02117188 10.92171875 -5.50328125 11.4528125 -6 12 C-6 8.70776216 -5.49481868 6.91489643 -4 4 C-1.875 2.6875 -1.875 2.6875 0 2 C0 1.34 0 0.68 0 0 Z " fill="#C2E7DB" transform="translate(549,225)"/>
<path d="M0 0 C1.21811255 3.65433764 0.56632223 4.60630184 -1 8 C-1.33 8.66 -1.66 9.32 -2 10 C-4.0625 10.625 -4.0625 10.625 -6 11 C-6 7.39426104 -5.18292538 6.58663434 -3 3.8125 C-2.443125 3.09707031 -1.88625 2.38164062 -1.3125 1.64453125 C-0.879375 1.10183594 -0.44625 0.55914062 0 0 Z " fill="#BDE0D3" transform="translate(737,426)"/>
<path d="M0 0 C1.65 0 3.3 0 5 0 C3.60846256 4.42761914 1.47928514 6.9556255 -2 10 C-2.66 10 -3.32 10 -4 10 C-4 9.34 -4 8.68 -4 8 C-3.34 7.38125 -2.68 6.7625 -2 6.125 C0.4569098 4.0008924 0.4569098 4.0008924 0 0 Z " fill="#C0E4DC" transform="translate(456,332)"/>
<path d="M0 0 C3.65190574 2.43460383 3.91974717 3.84518143 5 8 C5 9.32 5 10.64 5 12 C4.34 12 3.68 12 3 12 C2.49440092 10.56445975 1.9957251 9.1264798 1.5 7.6875 C1.2215625 6.88699219 0.943125 6.08648437 0.65625 5.26171875 C0 3 0 3 0 0 Z " fill="#C1EDDD" transform="translate(703,230)"/>
<path d="M0 0 C0.99 0 1.98 0 3 0 C1.71700242 2.86207152 0.469364 5.0245088 -2 7 C-2.99 7 -3.98 7 -5 7 C-5 6.01 -5 5.02 -5 4 C-4.01 4 -3.02 4 -2 4 C-1.67 3.01 -1.34 2.02 -1 1 C-0.67 0.67 -0.34 0.34 0 0 Z " fill="#BDE1D9" transform="translate(794,204)"/>
<path d="M0 0 C-1.55500981 3.81684226 -4.03595495 6.19195732 -7 9 C-4.83333333 0 -4.83333333 0 0 0 Z " fill="#C3EADA" transform="translate(750,259)"/>
<path d="M0 0 C0.33 0.99 0.66 1.98 1 3 C-1.45906075 6.87774964 -3.61740632 8.66087415 -8 10 C-7.04367001 8.70684939 -6.08486149 7.41553147 -5.125 6.125 C-4.59132813 5.40570313 -4.05765625 4.68640625 -3.5078125 3.9453125 C-2 2 -2 2 0 0 Z " fill="#111B16" transform="translate(518,266)"/>
<path d="M0 0 C0.66 0.33 1.32 0.66 2 1 C1.2884375 1.6496875 1.2884375 1.6496875 0.5625 2.3125 C-1.23686957 4.02309613 -1.23686957 4.02309613 -2 7 C-3.32 7 -4.64 7 -6 7 C-4.60667426 3.63279613 -3.0210714 2.0140476 0 0 Z " fill="#C3F0E1" transform="translate(794,360)"/>
<path d="M0 0 C0.99 0.66 1.98 1.32 3 2 C0.36 4.31 -2.28 6.62 -5 9 C-5 4.61031544 -2.87194899 3.23094261 0 0 Z " fill="#16201E" transform="translate(448,348)"/>
<path d="M0 0 C0.99 0 1.98 0 3 0 C1.61122646 3.35620271 0.08322035 5.07298728 -3 7 C-3.66 7 -4.32 7 -5 7 C-5 6.01 -5 5.02 -5 4 C-4.0409375 3.8453125 -4.0409375 3.8453125 -3.0625 3.6875 C-2.381875 3.460625 -1.70125 3.23375 -1 3 C-0.67 2.01 -0.34 1.02 0 0 Z " fill="#C9EEE1" transform="translate(505,277)"/>
<path d="M0 0 C1.65 0 3.3 0 5 0 C3.63016497 3.16115776 3.0109362 3.9927092 0 6 C0 4.02 0 2.04 0 0 Z " fill="#C4ECE1" transform="translate(768,232)"/>
<path d="M0 0 C0.33 0.66 0.66 1.32 1 2 C0.67 2.66 0.34 3.32 0 4 C-0.99 4 -1.98 4 -3 4 C-3 5.65 -3 7.3 -3 9 C-3.99 8.34 -4.98 7.68 -6 7 C-4.60667426 3.63279613 -3.0210714 2.0140476 0 0 Z " fill="#C6EFDE" transform="translate(755,407)"/>
<path d="M0 0 C0.66 0.33 1.32 0.66 2 1 C0.66667905 4.99996286 -1.4957827 5.83782337 -5 8 C-4.45773019 4.20411134 -2.79872437 2.52788007 0 0 Z " fill="#C4E6DC" transform="translate(823,324)"/>
<path d="M0 0 C2.51736102 3.77604154 3.2628809 6.31005137 2.5625 10.8125 C2.376875 11.534375 2.19125 12.25625 2 13 C1.67 13 1.34 13 1 13 C-0.10228696 8.59085217 -0.07654536 4.51617599 0 0 Z " fill="#C4E7E0" transform="translate(841,277)"/>
<path d="M0 0 C0.99 0.495 0.99 0.495 2 1 C2.4140625 3.28515625 2.4140625 3.28515625 2.625 6.0625 C2.69976562 6.98160156 2.77453125 7.90070313 2.8515625 8.84765625 C2.92503906 9.91306641 2.92503906 9.91306641 3 11 C2.690625 10.360625 2.38125 9.72125 2.0625 9.0625 C1.1654837 7.06389179 1.1654837 7.06389179 0 6 C-0.04080783 4.00041636 -0.04254356 1.99954746 0 0 Z " fill="#BFE4DD" transform="translate(436,365)"/>
<path d="M0 0 C0.6875 1.8125 0.6875 1.8125 1 4 C-0.3125 5.75 -0.3125 5.75 -2 7 C-2.66 7 -3.32 7 -4 7 C-2.92598892 4.08482708 -2.22189824 2.22189824 0 0 Z " fill="#BDDDD2" transform="translate(772,384)"/>
<path d="M0 0 C-1.39332574 3.36720387 -2.9789286 4.9859524 -6 7 C-6 5.68 -6 4.36 -6 3 C-2.78571429 0 -2.78571429 0 0 0 Z " fill="#C6E7DA" transform="translate(542,237)"/>
</svg>
